<svg width="128" height="128" viewBox="0 0 128 128" fill="none" xmlns="http://www.w3.org/2000/svg">
<path d="M5.98561 42.1068H11.1153V45.9841L10.9137 46.643V51.0779L11.1153 52.3704V60.8094H5.98561V42.1068ZM9.54726 49.38C9.72646 47.8088 10.1147 46.4488 10.7121 45.2999C11.3243 44.1342 12.1084 43.2387 13.0641 42.6136C14.0198 41.9885 15.1025 41.676 16.3121 41.676C17.5666 41.676 18.6642 41.997 19.605 42.639C20.5607 43.2641 21.2999 44.1595 21.8226 45.3252C22.3602 46.4741 22.629 47.8257 22.629 49.38C22.629 50.9006 22.3602 52.2437 21.8226 53.4094C21.2999 54.5583 20.5607 55.4537 19.605 56.0957C18.6642 56.7377 17.5666 57.0587 16.3121 57.0587C15.0876 57.0587 13.9974 56.7462 13.0417 56.1211C12.1009 55.4791 11.3318 54.5836 10.7345 53.4348C10.1371 52.269 9.74139 50.9174 9.54726 49.38ZM17.4546 49.38C17.4546 48.738 17.3351 48.172 17.0962 47.6821C16.8722 47.1752 16.5511 46.7782 16.1329 46.491C15.7148 46.2038 15.2369 46.0602 14.6993 46.0602C14.1468 46.0602 13.6166 46.2038 13.1089 46.491C12.6012 46.7782 12.1532 47.1752 11.7649 47.6821C11.3915 48.172 11.1153 48.738 10.9361 49.38C11.1153 50.022 11.3915 50.588 11.7649 51.0779C12.1532 51.5679 12.6012 51.9565 13.1089 52.2437C13.6166 52.5309 14.1468 52.6745 14.6993 52.6745C15.2369 52.6745 15.7148 52.5309 16.1329 52.2437C16.5511 51.9565 16.8722 51.5679 17.0962 51.0779C17.3351 50.588 17.4546 50.022 17.4546 49.38Z" fill="#0F5EAC"/>
<path d="M32.1316 57.0587C30.5487 57.0587 29.1375 56.7377 27.898 56.0957C26.6585 55.4537 25.6804 54.5498 24.9636 53.3841C24.2467 52.2184 23.8883 50.8583 23.8883 49.304C23.8883 47.7834 24.2318 46.4488 24.9188 45.2999C25.6206 44.1511 26.5689 43.2641 27.7636 42.639C28.9732 41.997 30.3247 41.676 31.818 41.676C33.3861 41.676 34.7226 42.0476 35.8277 42.791C36.9328 43.5175 37.7765 44.5565 38.3589 45.9081C38.9563 47.2597 39.2549 48.8478 39.2549 50.6725H28.0772V47.8088H36.2981L34.7973 48.7718C34.7226 48.0453 34.5583 47.4456 34.3045 46.9725C34.0655 46.4825 33.737 46.1109 33.3189 45.8574C32.9157 45.604 32.4303 45.4773 31.8628 45.4773C31.2356 45.4773 30.698 45.6294 30.25 45.9335C29.8169 46.2376 29.4809 46.6599 29.242 47.2006C29.018 47.7412 28.906 48.3579 28.906 49.0506C28.906 49.9122 29.0703 50.6387 29.3988 51.23C29.7423 51.8213 30.2575 52.2775 30.9444 52.5985C31.6314 52.9026 32.4826 53.0546 33.4981 53.0546C34.4687 53.0546 35.417 52.911 36.3429 52.6238C37.2837 52.3366 38.1424 51.9142 38.9189 51.3567V54.7526C38.008 55.496 36.9552 56.0704 35.7605 56.4759C34.5658 56.8644 33.3562 57.0587 32.1316 57.0587Z" fill="#0F5EAC"/>
<path d="M41.0736 56.6279V42.1068H46.136V53.4094L45.128 53.0293L51.1761 42.1068H57.7394V56.6279H52.6993V44.9451L53.6849 45.3506L47.4576 56.6279H41.0736ZM49.2273 40.9664C47.5995 40.9664 46.2928 40.5271 45.3072 39.6486C44.3216 38.77 43.7093 37.4945 43.4704 35.8219H47.368C47.4726 36.447 47.6816 36.9285 47.9952 37.2664C48.3238 37.5874 48.7345 37.7479 49.2273 37.7479C49.7499 37.7479 50.1681 37.5874 50.4817 37.2664C50.7953 36.9285 51.0043 36.447 51.1089 35.8219H55.0065C54.7676 37.4945 54.1479 38.77 53.1473 39.6486C52.1617 40.5271 50.855 40.9664 49.2273 40.9664Z" fill="#0F5EAC"/>
<path d="M59.7477 56.6279L60.5765 49.3547L59.7477 42.1068H70.567C71.8065 42.1068 72.7996 42.4362 73.5463 43.0951C74.2929 43.7371 74.6663 44.6157 74.6663 45.7307C74.6663 46.7782 74.2855 47.6314 73.5239 48.2903C72.7772 48.9492 71.7393 49.3547 70.4102 49.5067L70.7238 48.6197C72.262 48.7042 73.4343 49.0759 74.2407 49.7348C75.0471 50.3937 75.4503 51.306 75.4503 52.4718C75.4503 53.7389 75.0322 54.7526 74.1959 55.5128C73.3596 56.2562 72.2471 56.6279 70.8582 56.6279H59.7477ZM64.6758 55.4622L62.7045 53.1053H69.0662C69.4694 53.1053 69.7756 53.004 69.9846 52.8012C70.1937 52.5816 70.2982 52.2859 70.2982 51.9142C70.2982 51.5426 70.1862 51.2469 69.9622 51.0273C69.7382 50.8076 69.4022 50.6978 68.9542 50.6978H63.6901V47.8341H68.3942C68.7675 47.8341 69.0513 47.7328 69.2454 47.53C69.4395 47.3273 69.5366 47.057 69.5366 46.7191C69.5366 46.3812 69.4395 46.1193 69.2454 45.9335C69.0662 45.7307 68.7974 45.6294 68.439 45.6294H62.7269L64.6758 43.2725L65.4374 49.3547L64.6758 55.4622Z" fill="#0F5EAC"/>
<path d="M10.5777 86.5825C9.56219 86.5825 8.66618 86.4389 7.88964 86.1517C7.12803 85.8814 6.37388 85.4421 5.62721 84.8339V80.8805C6.37388 81.4211 7.06829 81.8097 7.71043 82.0462C8.35258 82.2828 9.05445 82.401 9.81606 82.401C10.4433 82.401 10.9883 82.249 11.4513 81.9449C11.9292 81.6408 12.3249 81.0748 12.6385 80.2469L17.2754 67.4491H22.7186L16.7153 82.0209C16.2524 83.1528 15.6849 84.0567 15.0129 84.7325C14.3559 85.4083 13.6465 85.8814 12.8849 86.1517C12.1233 86.4389 11.3542 86.5825 10.5777 86.5825ZM10.2865 80.323L5 67.4491H10.6449L15.2145 80.323H10.2865Z" fill="#E93250"/>
<path d="M38.7066 75.7107C38.5872 77.0454 38.1616 78.2195 37.4298 79.2332C36.6981 80.23 35.7423 81.0072 34.5626 81.5647C33.3978 82.1223 32.0836 82.401 30.6201 82.401C29.0223 82.401 27.6036 82.08 26.3641 81.438C25.1395 80.796 24.1838 79.8921 23.4969 78.7264C22.8099 77.5606 22.4664 76.226 22.4664 74.7223C22.4664 73.1849 22.8099 71.8417 23.4969 70.6929C24.1838 69.544 25.1395 68.6486 26.3641 68.0066C27.6036 67.3477 29.0223 67.0182 30.6201 67.0182C32.0836 67.0182 33.3978 67.297 34.5626 67.8545C35.7423 68.4121 36.6981 69.1892 37.4298 70.186C38.1616 71.1828 38.5872 72.357 38.7066 73.7086H33.6218C33.4725 72.9146 33.129 72.3148 32.5914 71.9093C32.0538 71.4869 31.3967 71.2758 30.6201 71.2758C30.0228 71.2758 29.5001 71.4109 29.0521 71.6812C28.6041 71.9347 28.2607 72.3232 28.0217 72.847C27.7828 73.3538 27.6633 73.9789 27.6633 74.7223C27.6633 75.4657 27.7828 76.0908 28.0217 76.5976C28.2607 77.1045 28.6041 77.4931 29.0521 77.7634C29.5001 78.0168 30.0228 78.1435 30.6201 78.1435C31.3967 78.1435 32.0538 77.9239 32.5914 77.4846C33.129 77.0285 33.4725 76.4371 33.6218 75.7107H38.7066Z" fill="#E93250"/>
<path d="M42.3276 67.4491H56.6862V81.9702H51.5565V69.0963L53.8862 71.7319H44.8813L47.0541 69.4511C47.1437 70.4479 47.2109 71.3264 47.2557 72.0867C47.3005 72.847 47.3229 73.5397 47.3229 74.1648C47.3229 77.0369 46.9197 79.115 46.1133 80.399C45.3218 81.6661 44.0226 82.2997 42.2156 82.2997C41.678 82.2997 41.1703 82.2321 40.6924 82.0969C40.2295 81.9787 39.7665 81.7759 39.3036 81.4887V77.3833C39.5724 77.5015 39.8337 77.5944 40.0876 77.662C40.3564 77.7127 40.5953 77.738 40.8044 77.738C41.4913 77.738 41.9767 77.4001 42.2604 76.7243C42.5442 76.0486 42.686 74.9335 42.686 73.3792C42.686 72.602 42.6562 71.7235 42.5964 70.7436C42.5367 69.7468 42.4471 68.6486 42.3276 67.4491Z" fill="#E93250"/>
<path d="M63.6033 86.5825C62.5879 86.5825 61.6918 86.4389 60.9153 86.1517C60.1537 85.8814 59.3996 85.4421 58.6529 84.8339V80.8805C59.3996 81.4211 60.094 81.8097 60.7361 82.0462C61.3782 82.2828 62.0801 82.401 62.8417 82.401C63.4689 82.401 64.014 82.249 64.477 81.9449C64.9548 81.6408 65.3506 81.0748 65.6642 80.2469L70.301 67.4491H75.7443L69.741 82.0209C69.2781 83.1528 68.7106 84.0567 68.0386 84.7325C67.3815 85.4083 66.6722 85.8814 65.9106 86.1517C65.149 86.4389 64.3799 86.5825 63.6033 86.5825ZM63.3121 80.323L58.0257 67.4491H63.6705L68.2402 80.323H63.3121Z" fill="#E93250"/>
<path d="M88.3753 67.4491V71.7826H79.6615L81.9912 69.147V81.9702H76.8615V67.4491H88.3753Z" fill="#E93250"/>
<path d="M89.8554 81.9702V67.4491H94.9179V78.7517L93.9099 78.3716L99.9579 67.4491H106.521V81.9702H101.481V70.2874L102.467 70.6929L96.2395 81.9702H89.8554Z" fill="#E93250"/>
<path d="M47.1673 4.28382C57.0604 -1.42794 69.2494 -1.42794 79.1425 4.28382L106.877 20.2964C116.77 26.0082 122.864 36.5642 122.864 47.9878V80.0126C122.864 91.4361 116.77 101.992 106.877 107.704L79.1425 123.716C69.2493 129.428 57.0604 129.428 47.1673 123.716L19.4329 107.704C14.686 104.963 10.8145 101.107 8.07028 96.5747C5.32608 92.0429 14.757 94.6874 16.4364 96.5747C18.1159 98.462 20.1058 100.098 22.3588 101.399L51.1642 118.03C58.584 122.314 67.7257 122.314 75.1456 118.03L103.951 101.399C111.371 97.1152 115.942 89.1984 115.942 80.6308V47.3695C115.942 38.8019 111.371 30.8848 103.951 26.6009L75.1456 9.97003C67.7257 5.68622 58.584 5.68622 51.1642 9.97003L22.3588 26.6009C19.9481 27.9927 17.8385 29.7684 16.0883 31.8249C14.3381 33.8815 5.07586 36.5298 7.83218 31.8249C10.5885 27.1201 14.5471 23.1173 19.4329 20.2964L47.1673 4.28382Z" fill="url(#paint0_linear_6_3)"/>
<defs>
<linearGradient id="paint0_linear_6_3" x1="63.1549" y1="-4.94648" x2="63.1549" y2="132.947" gradientUnits="userSpaceOnUse">
<stop stop-color="#125FA9"/>
<stop offset="0.471968" stop-color="#7E497C"/>
<stop offset="0.504808" stop-color="#7E497C"/>
<stop offset="0.532862" stop-color="#7E497C"/>
<stop offset="1" stop-color="#E83350"/>
</linearGradient>
</defs>
</svg>
